<svg xmlns="http://www.w3.org/2000/svg" xmlns:xlink="http://www.w3.org/1999/xlink" viewBox="0 0 513.13 381.84"><defs><style>.cls-1,.cls-11,.cls-12,.cls-13,.cls-4,.cls-5,.cls-6{fill:none;}.cls-2{fill:#c0c0c4;}.cls-3{fill:#a2a5aa;}.cls-11,.cls-12,.cls-13,.cls-35,.cls-4,.cls-41,.cls-43,.cls-5,.cls-6{stroke-miterlimit:10;}.cls-11,.cls-12,.cls-13,.cls-4,.cls-43,.cls-5,.cls-6{stroke-width:4px;}.cls-4{stroke-dasharray:12.05 5.02;stroke:url(#未命名的渐变_83);}.cls-5,.cls-6{stroke-dasharray:12.14 5.06;}.cls-5{stroke:url(#未命名的渐变_83-2);}.cls-6{stroke:url(#未命名的渐变_83-3);}.cls-7{fill:url(#未命名的渐变_580);}.cls-8{fill:url(#未命名的渐变_580-2);}.cls-9{fill:url(#未命名的渐变_580-3);}.cls-10{fill:#ededed;}.cls-11,.cls-12,.cls-13{stroke-dasharray:12 5;}.cls-11{stroke:url(#未命名的渐变_83-4);}.cls-12{stroke:url(#未命名的渐变_83-5);}.cls-13{stroke:url(#未命名的渐变_83-6);}.cls-14{fill:#cbcbd3;}.cls-14,.cls-15,.cls-16,.cls-17,.cls-19,.cls-20,.cls-21,.cls-22,.cls-24,.cls-30,.cls-41,.cls-42{fill-rule:evenodd;}.cls-15,.cls-35,.cls-38{fill:#e1e1ea;}.cls-16,.cls-28{fill:#fff;}.cls-17{fill:#ccc;}.cls-18{fill:#d1a886;}.cls-19{fill:#fcb024;}.cls-20,.cls-32{fill:#ecc19c;}.cls-21{fill:#0090ff;}.cls-22,.cls-33{fill:#b71b32;}.cls-23{fill:#0c3652;}.cls-24{fill:#3b1911;}.cls-25{fill:#2a2329;}.cls-26{fill:#fae4b7;}.cls-27{fill:#4d4d4d;}.cls-29{fill:url(#未命名的渐变_580-4);}.cls-30,.cls-36{fill:#f2f2f2;}.cls-31{clip-path:url(#clip-path);}.cls-34{fill:#141720;}.cls-35{stroke:#c0c0c4;}.cls-37{clip-path:url(#clip-path-2);}.cls-39{clip-path:url(#clip-path-3);}.cls-40{clip-path:url(#clip-path-4);}.cls-41{fill:#e6e6e6;stroke-width:2px;}.cls-41,.cls-43{stroke:#7c7d87;}.cls-42,.cls-48{fill:#0d86e8;}.cls-43,.cls-46{fill:#7c7d87;}.cls-44{clip-path:url(#clip-path-5);}.cls-45{fill:gray;}.cls-47{fill:#af3a3a;}</style><linearGradient id="未命名的渐变_83" x1="146.77" y1="241.91" x2="146.77" y2="370.91" gradientUnits="userSpaceOnUse"><stop offset="0" stop-color="#c31432"/><stop offset="1" stop-color="#002a6a"/></linearGradient><linearGradient id="未命名的渐变_83-2" x1="325.35" y1="171.85" x2="482.59" y2="171.85" xlink:href="#未命名的渐变_83"/><linearGradient id="未命名的渐变_83-3" x1="88.13" y1="108.93" x2="245.38" y2="108.93" xlink:href="#未命名的渐变_83"/><linearGradient id="未命名的渐变_580" x1="184.51" y1="262.27" x2="184.51" y2="342.84" gradientUnits="userSpaceOnUse"><stop offset="0" stop-color="#fff"/><stop offset="1" stop-color="#f5f5f9"/></linearGradient><linearGradient id="未命名的渐变_580-2" x1="39.77" y1="200.61" x2="39.77" y2="247.92" xlink:href="#未命名的渐变_580"/><linearGradient id="未命名的渐变_580-3" x1="440.1" y1="115.05" x2="440.1" y2="201.91" xlink:href="#未命名的渐变_580"/><linearGradient id="未命名的渐变_83-4" x1="276.37" y1="82.91" x2="391.57" y2="82.91" xlink:href="#未命名的渐变_83"/><linearGradient id="未命名的渐变_83-5" x1="196.86" y1="215.9" x2="254.6" y2="215.9" xlink:href="#未命名的渐变_83"/><linearGradient id="未命名的渐变_83-6" x1="287.12" y1="284.46" x2="392.83" y2="284.46" xlink:href="#未命名的渐变_83"/><linearGradient id="未命名的渐变_580-4" x1="195.08" y1="38.5" x2="195.08" y2="116.63" xlink:href="#未命名的渐变_580"/><clipPath id="clip-path"><circle class="cls-1" cx="306.01" cy="342.82" r="34.01"/></clipPath><clipPath id="clip-path-2"><circle class="cls-1" cx="429.37" cy="292.23" r="21.33"/></clipPath><clipPath id="clip-path-3"><circle class="cls-1" cx="85.67" cy="191.06" r="41.34"/></clipPath><clipPath id="clip-path-4"><circle class="cls-1" cx="390.83" cy="39.01" r="34.01"/></clipPath><clipPath id="clip-path-5"><path id="_剪贴路径_" data-name="&lt;剪贴路径&gt;" class="cls-2" d="M390.53,199.79h25.9a.93.93,0,0,1,.93.93v5.55a.93.93,0,0,1-.93.93h-25.9a.92.92,0,0,1-.92-.92v-5.55a.93.93,0,0,1,.93-.93Z" transform="translate(-25.72 344.88) rotate(-45)"/></clipPath></defs><title>资源 5</title><g id="图层_2" data-name="图层 2"><g id="图层_2-2" data-name="图层 2"><path class="cls-3" d="M166.89,286.6s-4.77-2.07-4.77-4.65,4.77-4.65,4.77-4.65a.58.58,0,0,0,.32-.69l-2.66-6.43a.59.59,0,0,0-.71-.27s-4.84,1.91-6.65.09.09-6.65.09-6.65a.59.59,0,0,0-.27-.71L150.57,260a.58.58,0,0,0-.69.32s-2.07,4.77-4.65,4.77-4.65-4.77-4.65-4.77a.58.58,0,0,0-.69-.32l-6.43,2.66a.59.59,0,0,0-.27.71s1.91,4.84.09,6.65-6.65-.09-6.65-.09a.59.59,0,0,0-.71.27l-2.66,6.43a.58.58,0,0,0,.32.69s4.77,2.07,4.77,4.65-4.77,4.65-4.77,4.65a.58.58,0,0,0-.32.69l2.66,6.43a.59.59,0,0,0,.71.27s4.84-1.91,6.65-.09-.09,6.65-.09,6.65a.59.59,0,0,0,.27.71l6.43,2.66a.58.58,0,0,0,.69-.32s2.07-4.77,4.65-4.77,4.65,4.77,4.65,4.77a.58.58,0,0,0,.69.32l6.43-2.66a.59.59,0,0,0,.27-.71s-1.91-4.84-.09-6.65,6.65.09,6.65.09a.59.59,0,0,0,.71-.27l2.66-6.43A.58.58,0,0,0,166.89,286.6Zm-21.66,7.13A11.77,11.77,0,1,1,157,282,11.77,11.77,0,0,1,145.23,293.73Z"/><circle class="cls-4" cx="146.77" cy="306.41" r="62.5"/><circle class="cls-5" cx="403.97" cy="171.85" r="76.62"/><circle class="cls-6" cx="166.76" cy="108.93" r="76.62"/><path class="cls-7" d="M229.07,282.29a31.41,31.41,0,0,0-54.25-7.65A19.9,19.9,0,0,0,145.29,287h-.58a28,28,0,0,0-.33,55.9H221.5a30.75,30.75,0,0,0,7.57-60.56Z"/><path class="cls-8" d="M65.94,212.36a18.44,18.44,0,0,0-31.85-4.49,11.68,11.68,0,0,0-17.34,7.23h-.34a16.41,16.41,0,0,0-.19,32.82H61.49a18.05,18.05,0,0,0,4.44-35.55Z"/><path class="cls-3" d="M125.06,347.47s-3.25-1.37-3.25-3.07,3.25-3.07,3.25-3.07a.38.38,0,0,0,.21-.46l-1.82-4.25a.41.41,0,0,0-.49-.18s-3.3,1.26-4.54.06.06-4.39.06-4.39a.38.38,0,0,0-.18-.47l-4.39-1.76a.4.4,0,0,0-.47.21s-1.41,3.15-3.17,3.15-3.17-3.15-3.17-3.15a.4.4,0,0,0-.47-.21l-4.39,1.76a.38.38,0,0,0-.18.47s1.3,3.19.06,4.39-4.54-.06-4.54-.06a.41.41,0,0,0-.49.18l-1.82,4.25a.38.38,0,0,0,.21.46s3.25,1.37,3.25,3.07-3.25,3.07-3.25,3.07a.38.38,0,0,0-.21.46l1.82,4.25a.41.41,0,0,0,.49.18s3.3-1.26,4.54-.06-.06,4.39-.06,4.39a.38.38,0,0,0,.18.47l4.39,1.76a.4.4,0,0,0,.47-.21s1.41-3.15,3.17-3.15,3.17,3.15,3.17,3.15a.4.4,0,0,0,.47.21l4.39-1.76a.38.38,0,0,0,.18-.47s-1.3-3.19-.06-4.39,4.54.06,4.54.06a.41.41,0,0,0,.49-.18l1.82-4.25A.38.38,0,0,0,125.06,347.47Zm-14.77,4.71a7.78,7.78,0,1,1,8-7.77A7.9,7.9,0,0,1,110.28,352.18Z"/><path class="cls-9" d="M488.15,136.63a33.87,33.87,0,0,0-58.48-8.25,21.45,21.45,0,0,0-31.84,13.28l-.62,0a30.13,30.13,0,0,0-.35,60.26H480a33.15,33.15,0,0,0,8.16-65.29Z"/><path class="cls-10" d="M397.55,194.38h-.61a22.6,22.6,0,0,1,.26-45.2h.43l6.08.12,1.44-5.85a13.92,13.92,0,0,1,20.65-8.62l5.77,3.46,4.09-5.35a26.33,26.33,0,0,1,45.48,6.41l1.41,3.62,3.76,1A25.62,25.62,0,0,1,480,194.38H397.55Z"/><path class="cls-11" d="M279.42,128.52S266.84,43.25,329,39.19c54.89-3.58,60.56,48.9,60.56,48.9"/><path class="cls-12" d="M253.71,203.1C241,196.75,209.5,185.55,201,204.62s9.89,31.78,21.19,33.19"/><path class="cls-13" d="M289.16,272.41s-2.73,15.79,38.61,13.9,58.28-.48,59,12.94c.37,7.09-10.59,15.54-25.42,10.59-15.88-5.29-10.59-19.77,7.06-26.13,11-4,25.42-15.54,21.89-27.54"/><path class="cls-14" d="M301.68,267.57l-3.9-40.37a.06.06,0,0,1,0-.05c15.26-3.64,27.38-12.13,30-.15.95,4.26,3.69,27.76,5.27,40.57Z"/><path class="cls-15" d="M279.42,267.57V211.31h.21c4,0,6.49-.71,10-3.8,7.73,5.77,37,8.45,38.14,19.11-2,3.91-7.22,26.66-9.93,41Z"/><polygon class="cls-14" points="305.34 244.76 291.13 267.57 283.95 267.57 297.88 211.09 298.09 212.71 301.39 213.22 309.34 231.62 301.93 237.53 305.34 244.76"/><polygon class="cls-15" points="302.82 241.45 289.06 267.57 283.95 267.57 298.09 212.71 301.39 213.22 306.43 230.06 298.93 235.9 302.82 241.45"/><path class="cls-16" d="M279,207.43l10.59.06s7.27,3.08,8.46,3.67l1.19,25.09L287,267.55H279Z"/><polygon class="cls-17" points="291.99 207.18 279.37 217.91 286.45 236.86 297.88 211.09 291.99 207.18"/><polygon class="cls-16" points="292.08 207.18 279.46 217.91 286.7 232.18 297.97 211.09 292.08 207.18"/><path class="cls-14" d="M257.16,267.57l3.9-40.37a.06.06,0,0,0,0-.05c-15.26-3.64-27.38-12.13-30-.15-.95,4.26-3.69,27.76-5.27,40.57Z"/><path class="cls-15" d="M279.42,267.57V211.31h-.21c-4,0-6.49-.71-10-3.8-7.73,5.77-37,8.45-38.14,19.11,2,3.91,7.22,26.66,9.93,41Z"/><polygon class="cls-14" points="253.49 244.76 267.7 267.57 274.88 267.57 260.96 211.09 260.75 212.71 257.45 213.22 249.49 231.62 256.9 237.53 253.49 244.76"/><polygon class="cls-15" points="256.01 241.45 269.77 267.57 274.88 267.57 260.75 212.71 257.45 213.22 252.4 230.06 259.9 235.9 256.01 241.45"/><path class="cls-16" d="M279.8,207.43l-10.59.06s-7.27,3.08-8.46,3.67l-1.19,25.09,12.33,31.3h7.91Z"/><rect class="cls-18" x="269.21" y="199.25" width="19.78" height="20.49"/><path class="cls-19" d="M282.49,232.4l1.38-2.91-4.66-11.29-4.58,11.11,1.46,3.09Z"/><polygon class="cls-17" points="269.21 207.51 279.21 218.2 272.09 237.24 263.29 211.44 269.21 207.51"/><polygon class="cls-17" points="289.34 207.41 279.21 218.2 286.33 237.24 295.26 211.33 289.34 207.41"/><polygon class="cls-16" points="269.21 207.51 279.21 218.2 271.94 232.53 263.29 211.44 269.21 207.51"/><polygon class="cls-16" points="289.34 207.41 279.21 218.2 286.48 232.53 295.26 211.33 289.34 207.41"/><path class="cls-19" d="M276.09,231.87h6.4a8.44,8.44,0,0,1,0,8.09h-6.4A8.44,8.44,0,0,1,276.09,231.87Z"/><rect class="cls-18" x="266.84" y="199.06" width="25.02" height="20.38"/><path class="cls-20" d="M279.47,211.06c10.19,0,19.62-11.27,24.6-25.09a1.79,1.79,0,0,0,1,.53c2,.33,4.35-1.84,5.19-6.71s-.13-9.09-2.16-9.41a1.63,1.63,0,0,0-.43,0c1-17.12-4.7-34.49-28.18-34.45-21.85,0-29.18,17.06-28.17,34.19a7.48,7.48,0,0,0-1.42,0c-2,.33-3,4.54-2.16,9.41s3.92,7.33,5.95,7a1.89,1.89,0,0,0,1.14-.71C259.76,199.69,269.23,211.06,279.47,211.06Z"/><path class="cls-21" d="M282.73,232l1.37-2.9-4.63-11.24L274.9,229l1.46,3.08Z"/><polygon class="cls-14" points="266.84 207.18 279.46 217.91 272.38 236.86 260.96 211.09 266.84 207.18"/><polygon class="cls-14" points="292.08 207.18 279.46 217.91 286.55 236.86 297.97 211.09 292.08 207.18"/><polygon class="cls-16" points="266.84 207.18 279.46 217.91 272.23 232.18 260.96 211.09 266.84 207.18"/><polygon class="cls-16" points="291.99 207.18 279.37 217.91 286.61 232.18 297.88 211.09 291.99 207.18"/><path class="cls-22" d="M276.36,231.52h6.37a8.4,8.4,0,0,1,0,8h-6.37A8.39,8.39,0,0,1,276.36,231.52Z"/><path class="cls-23" d="M290.86,183.74a11.33,11.33,0,0,0,1.13-.1,9,9,0,0,0,5.77-2.92c1.3-1.59,2-5,.14-6.36-1.53-1.17-5.15-1.21-7-1.12v-1.36c.55,0,1,0,1.38,0a41.46,41.46,0,0,1,6.25.8,17.54,17.54,0,0,0,2.38.36.74.74,0,0,1,.76.42,2.59,2.59,0,0,1,.26.91,10,10,0,0,1,.07,1.1c0,1.1-.25,2.23-.56,2.34h0l-.23.06h0c-.33.08-.84.2-1.41,1.7a8.17,8.17,0,0,1-2.27,3.56c-1.3,1.11-3.31,2-6.58,2h0Zm-2.46-10.3c-2.65.33-5.78,1.21-5.7,3.69.17,4.74,4.17,6.75,8.16,6.61v1.32c-5.77,0-7.59-2.84-8.58-4.38-.12-.18-.22-.34-.32-.48a7.31,7.31,0,0,1-.67-1.19c-.35-.73-.68-1.4-1.55-1.4s-1.19.67-1.55,1.4a7.34,7.34,0,0,1-.67,1.19c-.1.14-.21.3-.32.48-1,1.55-2.82,4.38-8.62,4.38v-1.32c4,.13,8-1.87,8.16-6.61.12-3.4-5.43-3.75-8.16-3.88h0v-1.36c1.18.06,2.72.2,4.17.39a19.18,19.18,0,0,1,4,.87,8.3,8.3,0,0,0,5.93,0,19.2,19.2,0,0,1,4-.87l1.73-.2c.87-.09,1.7-.15,2.41-.19v1.36h0C290.17,173.29,289.3,173.33,288.39,173.44Zm-19.81-1.55v1.36c-1.89-.09-5.52-.06-7,1.12-1.83,1.4-1.16,4.77.14,6.36a9,9,0,0,0,5.77,2.92,11.34,11.34,0,0,0,1.13.1v1.32h0c-3.27,0-5.28-.84-6.58-2a8.17,8.17,0,0,1-2.27-3.56c-.57-1.5-1.08-1.63-1.41-1.7h0l-.23-.06h0c-.31-.11-.57-1.24-.56-2.34a9.75,9.75,0,0,1,.07-1.1,2.59,2.59,0,0,1,.26-.91.74.74,0,0,1,.77-.42,17.55,17.55,0,0,0,2.38-.36,41.46,41.46,0,0,1,6.25-.8C267.58,171.85,268,171.86,268.58,171.89Z"/><polygon class="cls-19" points="285.4 267.57 282.49 239.48 276.09 239.48 273.26 267.57 285.4 267.57"/><polygon class="cls-22" points="285.68 267.57 282.73 239.09 276.36 239.09 273.48 267.57 285.68 267.57"/><path class="cls-24" d="M307.91,170.38c1.7-18.19-6.34-34.45-28.18-34.45S250.47,152,251.56,170.12c1.77.43,3.61,2.33,4.42,6.41,1.42.93,2.46.39,2.46-3.06,0-10.19,1.3-19.21,8.21-21.37,6.58-2,8,2.45,13,2.45s6.6-4.24,13-2.45c6.69,1.86,8.21,11.18,8.21,21.37,0,3.31.95,3.94,2.29,3.17C304.08,172.33,306.06,170.58,307.91,170.38Z"/><path class="cls-24" d="M303.21,152c-2.82,5.46-26.89,17.86-36.3,18.58,4.22-3.8,14.9-14.29,13.64-14.88s-16.42,10.69-24.43,13.3C254.48,136.14,279.07,137.19,303.21,152Z"/><path class="cls-24" d="M290,146.54c1.22,5.46,9.38,21.61,13.43,22.33S307.68,132.41,290,146.54Z"/><path class="cls-23" d="M285.29,203.1l-.44-2.47c16.83-3.65,17.71-19.42,17.74-20.09l2.16.18C304.75,180.89,303.8,199.08,285.29,203.1Z"/><path class="cls-23" d="M288.24,201.89a2.15,2.15,0,0,1-1.8,2.46l-5.83.93a2.16,2.16,0,0,1-2.48-1.78l-.13-.81a2.16,2.16,0,0,1,1.81-2.46l5.83-.93a2.15,2.15,0,0,1,2.47,1.78Z"/><path class="cls-23" d="M305,177.44a1.09,1.09,0,0,1-1-.67c-.15-.37-1.44-3.63-.12-5.64a3.36,3.36,0,0,1,2.91-1.43h0a1.08,1.08,0,0,1,0,2.15c-.86,0-1.08.35-1.15.46-.56.84,0,2.82.31,3.65a1.08,1.08,0,0,1-.59,1.4A1.09,1.09,0,0,1,305,177.44Z"/><path class="cls-23" d="M307.66,180.08a2.16,2.16,0,0,1-2.17,2.15h-.71a2.15,2.15,0,0,1-2.16-2.15v-4.6a2.15,2.15,0,0,1,2.16-2.15h.71a2.15,2.15,0,0,1,2.17,2.15Z"/><path class="cls-23" d="M255,178.21a1.09,1.09,0,0,1-.41-.08,1.08,1.08,0,0,1-.6-1.4c.35-.83.87-2.81.31-3.65-.07-.11-.29-.44-1.15-.46a1.07,1.07,0,0,1-1.05-1.1,1,1,0,0,1,1.11-1.05,3.36,3.36,0,0,1,2.92,1.44c1.32,2,0,5.27-.13,5.64A1.08,1.08,0,0,1,255,178.21Z"/><path class="cls-23" d="M256.94,182.8a2.16,2.16,0,0,1-2.16,2.15h-.71a2.16,2.16,0,0,1-2.17-2.15v-4.6a2.15,2.15,0,0,1,2.17-2.15h.71a2.15,2.15,0,0,1,2.16,2.15Z"/><path class="cls-25" d="M315.91,232.43v35.14H243.09V232.43a2.17,2.17,0,0,1,2.17-2.16h68.48A2.17,2.17,0,0,1,315.91,232.43Z"/><path class="cls-26" d="M287.51,216.56h0v-.08A.12.12,0,0,1,287.51,216.56Z"/><path class="cls-27" d="M315.83,232.43l-2.92,35.14H246.84l-3.66-35.14a2.16,2.16,0,0,1,2.17-2.16h68.32A2.17,2.17,0,0,1,315.83,232.43Z"/><path class="cls-28" d="M285.85,250.69a6.35,6.35,0,1,1-6.35-6.3A6.33,6.33,0,0,1,285.85,250.69Z"/><path class="cls-29" d="M238.29,57.91a30.46,30.46,0,0,0-52.6-7.42,19.29,19.29,0,0,0-28.64,11.95h-.56a27.1,27.1,0,0,0-.32,54.2H231a29.82,29.82,0,0,0,7.34-58.72Z"/><path class="cls-30" d="M306,379.34a36.51,36.51,0,1,1,36.52-36.51A36.56,36.56,0,0,1,306,379.34Z"/><path class="cls-2" d="M306,308.81a34,34,0,1,1-34,34,34,34,0,0,1,34-34m0-5a39,39,0,1,0,39,39,39.06,39.06,0,0,0-39-39Z"/><g class="cls-31"><path class="cls-32" d="M323.17,377.12h-34.3a17.07,17.07,0,0,1,.92-5.54q.16-.47.35-.93h0c.12-.31.26-.61.4-.91a17,17,0,0,1,2.09-3.33c.21-.26.42-.5.63-.74l.33-.36.34-.35a17.05,17.05,0,0,1,1.85-1.6c.33-.24.66-.47,1-.69l.44-.27.26-.16.11-.06.23-.13h0l.41-.24a10.2,10.2,0,0,0,1.16-.81,10.81,10.81,0,0,0,1.49-1.44,10.63,10.63,0,0,0,2.27-4.4c.06-.24.12-.49.16-.74a11,11,0,0,0,.17-1.91h5.07a10.91,10.91,0,0,0,.16,1.88c0,.25.1.5.16.75a10.13,10.13,0,0,0,.29,1,10.92,10.92,0,0,0,3.45,4.84l.37.29.35.24.07.05.36.23.4.24.06,0,.84.49.39.26c.27.17.53.36.79.55h0c.33.24.64.5,1,.77s.61.54.9.83A17.07,17.07,0,0,1,323.17,377.12Z"/><path class="cls-33" d="M323.17,377.12h-34.3a17.07,17.07,0,0,1,.92-5.54q.16-.47.35-.93h0c.12-.31.26-.61.4-.91a17,17,0,0,1,2.09-3.33c.21-.26.42-.5.63-.74l.33-.36.34-.35a17.05,17.05,0,0,1,1.85-1.6c.33-.24.66-.47,1-.69l.44-.27.26-.16.11-.06.23-.13h0l.41-.24a10,10,0,0,0,1.15-.81h0a9.22,9.22,0,0,0,6.59,2.78h.45a9.22,9.22,0,0,0,6.19-2.77h0a8.73,8.73,0,0,0,.71.53l.07.05.36.23.4.23.06,0c.28.16.57.32.84.5l.39.26c.27.17.53.36.79.55h0c.33.25.65.5,1,.77s.61.54.9.83A17.07,17.07,0,0,1,323.17,377.12Z"/><path class="cls-33" d="M311.31,356.63v2a1.43,1.43,0,0,1-.27.83,1.45,1.45,0,0,1-1.2.63H302a1.47,1.47,0,0,1-1.46-1.46v-2a1.47,1.47,0,0,1,1.46-1.46h7.85a1.42,1.42,0,0,1,.79.23A1.46,1.46,0,0,1,311.31,356.63Z"/><path class="cls-33" d="M313,361.29v4.29H297.22V362.4l.26-.16.11-.06.23-.13h0l.41-.24a10.2,10.2,0,0,0,1.16-.81,10.81,10.81,0,0,0,1.49-1.44A10.55,10.55,0,0,0,302,358h8.08a10.44,10.44,0,0,0,1,1.39,10.6,10.6,0,0,0,1.59,1.57Z"/><path class="cls-34" d="M323.36,336a18.82,18.82,0,0,1-9.15,16.4,16.39,16.39,0,0,1-5.48,2,15.69,15.69,0,0,1-2.28.22H306a16.29,16.29,0,0,1-8.19-2.21,18.82,18.82,0,0,1-9.15-16.4c0-10,7.38-18.19,16.63-18.59h1.77C316.16,318,323.36,326.13,323.36,336Z"/><path class="cls-32" d="M319.18,330.59v9.83c0,.14,0,.28,0,.43s0,.23,0,.35,0,.21,0,.31,0,.15,0,.22,0,.09,0,.13,0,.16,0,.25,0,.31-.05.46,0,.08,0,.12,0,.16,0,.23h0l-.06.34c0,.16-.06.31-.09.46v0a.51.51,0,0,1,0,.07v0c0,.08,0,.16-.05.25a.64.64,0,0,1,0,.11c0,.06,0,.12,0,.17s0,.07,0,.1l0,.08c-.07.27-.15.52-.23.78l-.12.37v0l-.12.33,0,.1-.12.31-.15.37-.14.33,0,.05-.16.35-.17.36c-.12.24-.24.47-.37.7l-.17.31a19,19,0,0,1-1.65,2.41l-.25.31-.37.43-.32.35v0c-.31.33-.63.65-1,.95l-.2.18-.33.29-.27.23c-.23.19-.47.38-.7.55l-.3.21-.49.33-.28.17,0,0c-.31.19-.63.37-.95.53l-.24.12-.25.12-.32.14-.13,0-.38.14-.48.15-.33.09h0l-.33.07-.09,0-.27,0-.39,0h-.87l-.28,0h-.06l-.36-.06-.31-.06a9.29,9.29,0,0,1-1.7-.57,12.4,12.4,0,0,1-1.48-.78l-.08-.05-.66-.43-.37-.27q-.58-.42-1.14-.92l-.31-.28-.31-.28c-.24-.23-.47-.47-.7-.71l0,0-.28-.31c-.26-.29-.51-.59-.75-.91l-.27-.35q-.49-.65-.93-1.35l-.23-.38-.27-.46a17.67,17.67,0,0,1-.88-1.81c0-.09-.08-.18-.11-.27s-.1-.24-.14-.35l-.18-.51-.17-.52c-.05-.17-.1-.34-.15-.51s-.1-.37-.14-.55V344q-.09-.39-.16-.79c-.06-.35-.12-.7-.16-1.06,0-.11,0-.23,0-.34s0-.24,0-.36,0-.44,0-.66,0-.28,0-.43v-9.83a13.17,13.17,0,0,1,12.44-13.14h1.61l.29,0h.24a13.49,13.49,0,0,1,1.51.25,13.17,13.17,0,0,1,10.24,12.72S319.18,330.55,319.18,330.59Z"/><path class="cls-34" d="M322.12,335.46h-32.2c0-9.69,6.82-17.59,15.38-18h2.13C315.66,318.29,322.12,326,322.12,335.46Z"/><rect class="cls-35" x="291.95" y="360.81" width="28.14" height="18.17" rx="2" ry="2"/><circle class="cls-28" cx="306.01" cy="367.62" r="2.11"/></g><circle class="cls-36" cx="429.37" cy="292.23" r="21.33"/><path class="cls-2" d="M429.37,270.9A21.33,21.33,0,1,1,408,292.23a21.33,21.33,0,0,1,21.33-21.33m0-2.36a23.69,23.69,0,1,0,23.69,23.69,23.72,23.72,0,0,0-23.69-23.69Z"/><g class="cls-37"><path class="cls-32" d="M440.12,313.74H418.61a10.7,10.7,0,0,1,.57-3.47q.1-.3.22-.58h0c.08-.19.16-.38.25-.57A10.64,10.64,0,0,1,421,307l.4-.47.21-.23.21-.22a10.69,10.69,0,0,1,1.16-1c.2-.15.41-.29.63-.43l.28-.17.16-.1.07,0,.15-.08h0l.26-.15a6.4,6.4,0,0,0,.73-.51,6.78,6.78,0,0,0,.93-.9,6.67,6.67,0,0,0,1.43-2.76c0-.15.07-.31.1-.46a6.89,6.89,0,0,0,.11-1.2H431a6.84,6.84,0,0,0,.1,1.18c0,.16.06.31.1.47a6.35,6.35,0,0,0,.18.62,6.85,6.85,0,0,0,2.16,3l.23.18.22.15,0,0,.22.14.25.15,0,0,.53.31.25.16c.17.11.33.23.49.35h0c.2.15.4.31.6.48s.38.34.56.52A10.7,10.7,0,0,1,440.12,313.74Z"/><path class="cls-33" d="M440.12,313.74H418.61a10.7,10.7,0,0,1,.57-3.47q.1-.3.22-.58h0c.08-.19.16-.38.25-.57A10.64,10.64,0,0,1,421,307l.4-.47.21-.23.21-.22a10.69,10.69,0,0,1,1.16-1c.2-.15.41-.29.63-.43l.28-.17.16-.1.07,0,.15-.08h0l.26-.15a6.28,6.28,0,0,0,.72-.51h0a5.78,5.78,0,0,0,4.13,1.75h.28a5.78,5.78,0,0,0,3.88-1.74h0a5.47,5.47,0,0,0,.45.33l0,0,.22.14.25.15,0,0,.53.31.25.16c.17.11.33.23.49.35h0c.2.15.41.31.6.48s.38.34.56.52A10.7,10.7,0,0,1,440.12,313.74Z"/><path class="cls-33" d="M432.69,300.89v1.23a.9.9,0,0,1-.17.52.91.91,0,0,1-.75.4h-4.92a.92.92,0,0,1-.92-.92v-1.23a.92.92,0,0,1,.92-.92h4.92a.89.89,0,0,1,.49.15A.91.91,0,0,1,432.69,300.89Z"/><path class="cls-33" d="M433.75,303.81v2.69h-9.9v-2l.16-.1.07,0,.15-.08h0l.26-.15a6.4,6.4,0,0,0,.73-.51,6.78,6.78,0,0,0,.93-.9,6.61,6.61,0,0,0,.68-1h5.07a6.55,6.55,0,0,0,.61.87,6.65,6.65,0,0,0,1,1Z"/><path class="cls-34" d="M440.25,288a11.8,11.8,0,0,1-5.74,10.29,10.28,10.28,0,0,1-3.44,1.24,9.84,9.84,0,0,1-1.43.14h-.28a10.21,10.21,0,0,1-5.14-1.38A11.8,11.8,0,0,1,418.49,288c0-6.28,4.63-11.41,10.43-11.66H430C435.73,276.69,440.25,281.76,440.25,288Z"/><path class="cls-32" d="M437.62,284.56v6.17c0,.09,0,.18,0,.27s0,.14,0,.22,0,.13,0,.19,0,.09,0,.14,0,.05,0,.08,0,.1,0,.15,0,.19,0,.29v.07l0,.15h0l0,.21-.06.29h0v0h0l0,.15a.4.4,0,0,1,0,.07l0,.11,0,.06v.05c0,.17-.09.33-.14.49l-.08.23v0l-.07.21,0,.06-.08.19-.1.23-.09.21v0l-.1.22-.11.23-.23.44-.11.19a11.94,11.94,0,0,1-1,1.51l-.16.19-.23.27-.2.22h0c-.19.21-.39.41-.6.59l-.13.12-.21.18-.17.14-.44.34-.19.13-.31.21-.17.11,0,0c-.2.12-.4.23-.59.33l-.15.08-.16.07-.2.09-.08,0-.24.09-.3.1-.21.05h0l-.21,0h-.05l-.17,0-.24,0h-.54l-.18,0h0l-.23,0-.2,0a5.83,5.83,0,0,1-1.06-.36,7.78,7.78,0,0,1-.93-.49l-.05,0-.41-.27-.23-.17q-.36-.26-.72-.58l-.19-.18-.19-.18c-.15-.14-.3-.29-.44-.45l0,0L424,298c-.16-.18-.32-.37-.47-.57l-.17-.22q-.31-.41-.58-.85l-.14-.24-.17-.29a11.08,11.08,0,0,1-.55-1.14l-.07-.17-.09-.22-.12-.32-.11-.33-.09-.32c0-.11-.06-.23-.09-.35v0q-.06-.24-.1-.49c0-.22-.07-.44-.1-.67,0-.07,0-.14,0-.21s0-.15,0-.22,0-.27,0-.41,0-.18,0-.27v-6.17a8.26,8.26,0,0,1,7.8-8.24h1.34a8.46,8.46,0,0,1,.95.16,8.26,8.26,0,0,1,6.42,8S437.62,284.53,437.62,284.56Z"/><path class="cls-34" d="M439.46,287.61H419.27c0-6.08,4.28-11,9.64-11.3h1.34C435.41,276.85,439.46,281.7,439.46,287.61Z"/><rect class="cls-38" x="420.54" y="303.51" width="17.64" height="11.4" rx="2" ry="2"/><path class="cls-2" d="M437.24,315.14H421.49a1.18,1.18,0,0,1-1.18-1.18v-9.51a1.18,1.18,0,0,1,1.18-1.18h15.75a1.18,1.18,0,0,1,1.18,1.18V314A1.18,1.18,0,0,1,437.24,315.14Zm-15.75-11.4a.71.71,0,0,0-.71.71V314a.71.71,0,0,0,.71.71h15.75A.71.71,0,0,0,438,314v-9.51a.71.71,0,0,0-.71-.71Z"/><circle class="cls-28" cx="429.37" cy="307.78" r="1.32"/></g><circle class="cls-36" cx="85.67" cy="191.06" r="41.34"/><path class="cls-2" d="M85.67,149.72a41.34,41.34,0,1,1-41.34,41.34,41.34,41.34,0,0,1,41.34-41.34m0-4.58a45.92,45.92,0,1,0,45.92,45.92,46,46,0,0,0-45.92-45.92Z"/><g class="cls-39"><path class="cls-32" d="M106.52,232.75H64.83A20.74,20.74,0,0,1,65.94,226q.19-.57.42-1.13h0c.15-.37.31-.74.49-1.1a20.62,20.62,0,0,1,2.54-4c.25-.31.51-.61.77-.9l.4-.44L71,218A20.73,20.73,0,0,1,73.23,216c.4-.29.8-.57,1.21-.84l.54-.33.31-.19.14-.07.28-.16h0l.5-.29a12.4,12.4,0,0,0,1.41-1,13.14,13.14,0,0,0,1.81-1.75,12.92,12.92,0,0,0,2.76-5.34c.08-.29.14-.59.2-.9a13.35,13.35,0,0,0,.2-2.33l3,0h3.12a13.26,13.26,0,0,0,.2,2.28c.05.31.12.61.2.91a12.31,12.31,0,0,0,.36,1.21,13.28,13.28,0,0,0,4.19,5.89l.45.35.42.29.09.06.43.28.49.29.07,0c.35.19.69.39,1,.6.16.1.32.2.48.31.33.21.64.44,1,.67h0c.4.29.78.61,1.16.93s.74.66,1.09,1A20.74,20.74,0,0,1,106.52,232.75Z"/><path class="cls-33" d="M106.52,232.75H64.83A20.74,20.74,0,0,1,65.94,226q.19-.57.42-1.13h0c.15-.37.31-.74.49-1.1a20.62,20.62,0,0,1,2.54-4c.25-.31.51-.61.77-.9l.4-.44L71,218A20.73,20.73,0,0,1,73.23,216c.4-.29.8-.57,1.21-.84l.54-.33.31-.19.14-.07.28-.16h0l.5-.29a12.17,12.17,0,0,0,1.4-1h0a11.2,11.2,0,0,0,8,3.38h0l.51,0a11.2,11.2,0,0,0,7.52-3.36h0a10.61,10.61,0,0,0,.87.65l.09.06.43.28.49.28.07,0c.35.19.69.39,1,.61.16.1.32.2.48.31.33.21.64.44,1,.67h0c.4.3.79.61,1.16.94s.74.66,1.09,1A20.74,20.74,0,0,1,106.52,232.75Z"/><path class="cls-33" d="M92.11,207.84v2.39a1.74,1.74,0,0,1-.32,1,1.76,1.76,0,0,1-1.46.77H80.79A1.79,1.79,0,0,1,79,210.23v-2.39a1.78,1.78,0,0,1,1.78-1.78h9.54a1.73,1.73,0,0,1,1,.28A1.77,1.77,0,0,1,92.11,207.84Z"/><path class="cls-33" d="M94.17,213.51v5.22H75v-3.87l.31-.19.14-.07.28-.16h0l.5-.29a12.4,12.4,0,0,0,1.41-1,13.14,13.14,0,0,0,1.81-1.75,12.82,12.82,0,0,0,1.32-1.85H90.6a12.69,12.69,0,0,0,1.19,1.69,12.88,12.88,0,0,0,1.93,1.91Z"/><path class="cls-34" d="M106.76,182.82a22.87,22.87,0,0,1-11.12,19.93A19.91,19.91,0,0,1,89,205.15a19.07,19.07,0,0,1-2.77.27h-.53a19.79,19.79,0,0,1-10-2.68,22.88,22.88,0,0,1-11.13-19.94c0-12.18,9-22.11,20.21-22.6h1.42l.35,0h.38C98,161,106.76,170.78,106.76,182.82Z"/><path class="cls-32" d="M101.67,176.19v12c0,.17,0,.35,0,.52s0,.28,0,.42,0,.25,0,.38,0,.18,0,.27,0,.11,0,.16,0,.2,0,.3,0,.37-.07.56,0,.09,0,.14,0,.19,0,.28h0l-.07.41c0,.19-.07.38-.11.56v0a.62.62,0,0,1,0,.08v0c0,.1,0,.2-.07.3a.78.78,0,0,1,0,.13c0,.07,0,.14,0,.21s0,.08,0,.12l0,.1c-.08.32-.18.64-.28,1l-.15.44,0,0-.14.4,0,.12-.15.38-.18.45-.17.4,0,.07-.2.42-.21.44c-.14.29-.29.57-.45.85l-.21.38a23.14,23.14,0,0,1-2,2.92l-.31.38-.44.52-.39.42,0,0c-.38.4-.76.79-1.16,1.15l-.24.22-.4.35-.33.28c-.28.23-.57.46-.85.66l-.36.26-.6.4-.34.21-.06,0c-.38.24-.77.45-1.15.64l-.29.15-.31.14-.39.17-.15.06-.46.17-.58.18-.4.11h0l-.4.09-.11,0-.33.05-.47.05H85.15l-.34,0h-.07l-.44-.07-.38-.08a11.29,11.29,0,0,1-2.06-.7,15.07,15.07,0,0,1-1.8-1l-.1-.06c-.27-.17-.54-.34-.8-.53l-.45-.32q-.7-.51-1.39-1.12l-.38-.35-.37-.35c-.29-.28-.57-.57-.84-.87l-.05-.05-.34-.38c-.31-.35-.62-.72-.91-1.1l-.33-.42q-.6-.79-1.13-1.65l-.28-.46-.32-.56a21.48,21.48,0,0,1-1.07-2.2c0-.11-.09-.22-.13-.33s-.12-.29-.17-.43-.15-.42-.22-.62-.14-.42-.2-.63-.12-.41-.18-.62-.12-.44-.17-.67l0-.07q-.11-.47-.2-1c-.08-.42-.14-.86-.19-1.29,0-.14,0-.28,0-.41s0-.29,0-.43,0-.53,0-.8,0-.35,0-.52v-12a16,16,0,0,1,15.12-16h1.42l.35,0h.18l.35,0,.17,0h.11a16.39,16.39,0,0,1,1.84.3,16,16,0,0,1,12.45,15.46S101.67,176.15,101.67,176.19Z"/><path class="cls-34" d="M105.24,182.12H66.11c0-11.78,8.29-21.38,18.69-21.9h1.42l.35,0h.38l.15,0,.17,0h.11C97.39,161.25,105.24,170.66,105.24,182.12Z"/><rect class="cls-38" x="68.57" y="212.92" width="34.2" height="22.08" rx="2" ry="2"/><path class="cls-2" d="M100.94,235.47H70.41a2.29,2.29,0,0,1-2.29-2.29V214.75a2.29,2.29,0,0,1,2.29-2.29h30.53a2.29,2.29,0,0,1,2.29,2.29v18.42A2.29,2.29,0,0,1,100.94,235.47ZM70.41,213.38A1.37,1.37,0,0,0,69,214.75v18.42a1.37,1.37,0,0,0,1.37,1.37h30.53a1.37,1.37,0,0,0,1.37-1.37V214.75a1.37,1.37,0,0,0-1.37-1.37Z"/><circle class="cls-28" cx="85.67" cy="221.2" r="2.57"/></g><path class="cls-30" d="M390.83,75.53A36.51,36.51,0,1,1,427.35,39,36.56,36.56,0,0,1,390.83,75.53Z"/><path class="cls-2" d="M390.83,5a34,34,0,1,1-34,34,34,34,0,0,1,34-34m0-5a39,39,0,1,0,39,39,39.06,39.06,0,0,0-39-39Z"/><g class="cls-40"><path class="cls-32" d="M408,73.31h-34.3a17.07,17.07,0,0,1,.92-5.54q.16-.47.35-.93h0c.12-.31.26-.61.4-.91a17,17,0,0,1,2.09-3.33c.21-.26.42-.5.63-.74l.33-.36.34-.35a17.05,17.05,0,0,1,1.85-1.6c.33-.24.66-.47,1-.69l.44-.27.26-.16.11-.06.23-.13h0l.41-.24a10.2,10.2,0,0,0,1.16-.81,10.81,10.81,0,0,0,1.49-1.44,10.63,10.63,0,0,0,2.27-4.4c.06-.24.12-.49.16-.74a11,11,0,0,0,.17-1.91h5.07a10.91,10.91,0,0,0,.16,1.88c0,.25.1.5.16.75a10.13,10.13,0,0,0,.29,1,10.92,10.92,0,0,0,3.45,4.84l.37.29.35.24.07.05.36.23.4.24.06,0,.84.49.39.26c.27.17.53.36.79.55h0c.33.24.64.5,1,.77s.61.54.9.83A17.07,17.07,0,0,1,408,73.31Z"/><path class="cls-33" d="M408,73.31h-34.3a17.07,17.07,0,0,1,.92-5.54q.16-.47.35-.93h0c.12-.31.26-.61.4-.91a17,17,0,0,1,2.09-3.33c.21-.26.42-.5.63-.74l.33-.36.34-.35a17.05,17.05,0,0,1,1.85-1.6c.33-.24.66-.47,1-.69l.44-.27.26-.16.11-.06.23-.13h0l.41-.24a10,10,0,0,0,1.15-.81h0A9.22,9.22,0,0,0,390.82,60h.45a9.22,9.22,0,0,0,6.19-2.77h0a8.73,8.73,0,0,0,.71.53l.07.05.36.23.4.23.06,0c.28.16.57.32.84.5l.39.26c.27.17.53.36.79.55h0c.33.25.65.5,1,.77s.61.54.9.83A17.07,17.07,0,0,1,408,73.31Z"/><path class="cls-33" d="M396.13,52.82v2a1.43,1.43,0,0,1-.27.83,1.45,1.45,0,0,1-1.2.63h-7.85a1.47,1.47,0,0,1-1.46-1.46v-2a1.47,1.47,0,0,1,1.46-1.46h7.85a1.42,1.42,0,0,1,.79.23A1.46,1.46,0,0,1,396.13,52.82Z"/><path class="cls-33" d="M397.83,57.48v4.29H382V58.59l.26-.16.11-.06.23-.13h0l.41-.24a10.2,10.2,0,0,0,1.16-.81,10.81,10.81,0,0,0,1.49-1.44,10.55,10.55,0,0,0,1.09-1.52h8.08a10.44,10.44,0,0,0,1,1.39,10.6,10.6,0,0,0,1.59,1.57Z"/><path class="cls-34" d="M408.18,32.23A18.82,18.82,0,0,1,399,48.63a16.39,16.39,0,0,1-5.48,2,15.69,15.69,0,0,1-2.28.22h-.44a16.29,16.29,0,0,1-8.19-2.21,18.82,18.82,0,0,1-9.15-16.4c0-10,7.38-18.19,16.63-18.59h1.77C401,14.24,408.18,22.33,408.18,32.23Z"/><path class="cls-32" d="M404,26.78v9.83c0,.14,0,.28,0,.43s0,.23,0,.35,0,.21,0,.31,0,.15,0,.22,0,.09,0,.13,0,.16,0,.25,0,.31-.05.46,0,.08,0,.12,0,.16,0,.23h0l-.06.34c0,.16-.06.31-.09.46v0a.51.51,0,0,1,0,.07v0c0,.08,0,.16-.05.25a.64.64,0,0,1,0,.11c0,.06,0,.12,0,.17s0,.07,0,.1l0,.08c-.07.27-.15.52-.23.78l-.12.37v0l-.12.33,0,.1-.12.31-.15.37-.14.33,0,.05-.16.35-.17.36c-.12.24-.24.47-.37.7l-.17.31A19,19,0,0,1,400,47.54l-.25.31-.37.43-.32.35v0c-.31.33-.63.65-1,.95l-.2.18-.33.29-.27.23c-.23.19-.47.38-.7.55l-.3.21-.49.33-.28.17,0,0c-.31.19-.63.37-.95.53l-.24.12-.25.12-.32.14-.13,0-.38.14-.48.15-.33.09h0L392,53l-.09,0-.27,0-.39,0h-.87l-.28,0h-.06L389.7,53l-.31-.06a9.29,9.29,0,0,1-1.7-.57,12.4,12.4,0,0,1-1.48-.78l-.08-.05-.66-.43-.37-.27q-.58-.42-1.14-.92l-.31-.28-.31-.28c-.24-.23-.47-.47-.7-.71l0,0-.28-.31c-.26-.29-.51-.59-.75-.91l-.27-.35q-.49-.65-.93-1.35l-.23-.38-.27-.46A17.67,17.67,0,0,1,379,43c0-.09-.08-.18-.11-.27s-.1-.24-.14-.35l-.18-.51-.17-.52c-.05-.17-.1-.34-.15-.51s-.1-.37-.14-.55v-.06q-.09-.39-.16-.79c-.06-.35-.12-.7-.16-1.06,0-.11,0-.23,0-.34s0-.24,0-.36,0-.44,0-.66,0-.28,0-.43V26.78a13.17,13.17,0,0,1,12.44-13.14h1.61l.29,0h.24a13.49,13.49,0,0,1,1.51.25A13.17,13.17,0,0,1,404,26.66S404,26.74,404,26.78Z"/><path class="cls-34" d="M406.93,31.65h-32.2c0-9.69,6.82-17.59,15.38-18h2.13C400.47,14.49,406.93,22.22,406.93,31.65Z"/><rect class="cls-35" x="376.76" y="57" width="28.14" height="18.17" rx="2" ry="2"/><circle class="cls-28" cx="390.83" cy="63.81" r="2.11"/></g><polygon class="cls-41" points="198.87 136.62 198.87 63.94 192.79 63.94 192.79 136.62 186.49 136.62 195.83 152.81 205.18 136.62 198.87 136.62"/><polygon class="cls-41" points="223.35 137.88 223.35 88.54 229.66 88.54 220.31 72.35 210.97 88.54 217.27 88.54 217.27 137.12 217.27 143.96 224.11 143.96 240.58 143.96 240.58 137.88 223.35 137.88"/><polygon class="cls-41" points="168.31 81.83 168.31 132.32 158.86 132.32 158.86 126.02 142.67 135.36 158.86 144.71 158.86 138.41 167.56 138.41 174.4 138.41 174.4 131.57 174.4 81.83 168.31 81.83"/><polygon class="cls-42" points="170.98 84.09 170.98 134.99 155.85 134.99 155.85 131.24 148.69 135.37 155.85 139.49 155.85 135.74 170.98 135.74 171.73 135.74 171.73 134.99 171.73 84.09 170.98 84.09"/><polygon class="cls-42" points="220.69 140.66 220.69 85.53 224.44 85.53 220.31 78.38 216.18 85.53 219.94 85.53 219.94 140.66 219.94 141.03 219.94 141.41 238.29 141.41 238.29 140.66 220.69 140.66"/><polygon class="cls-42" points="196.21 139.63 196.21 66.62 195.46 66.62 195.46 139.63 191.7 139.63 195.83 146.78 199.96 139.63 196.21 139.63"/><polygon class="cls-41" points="126.26 71.48 145.96 71.48 145.96 65.39 126.26 65.39 126.26 59.09 110.07 68.44 126.26 77.78 126.26 71.48"/><polygon class="cls-42" points="123.25 68.81 143.28 68.81 143.28 68.06 123.25 68.06 123.25 64.31 116.09 68.44 123.25 72.57 123.25 68.81"/><polygon class="cls-41" points="102.52 99.97 77.3 99.97 77.3 107.75 102.52 107.75 102.52 115.83 123.24 103.86 102.52 91.9 102.52 99.97"/><polygon class="cls-42" points="106.37 103.38 80.73 103.38 80.73 104.34 106.37 104.34 106.37 109.15 115.53 103.86 106.37 98.58 106.37 103.38"/><line class="cls-43" x1="420.58" y1="186.39" x2="413.33" y2="193.65"/><path id="_剪贴路径_2" data-name="&lt;剪贴路径&gt;" class="cls-2" d="M390.53,199.79h25.9a.93.93,0,0,1,.93.93v5.55a.93.93,0,0,1-.93.93h-25.9a.92.92,0,0,1-.92-.92v-5.55a.93.93,0,0,1,.93-.93Z" transform="translate(-25.72 344.88) rotate(-45)"/><g class="cls-44"><rect class="cls-45" x="393" y="208.89" width="7.4" height="2.77" transform="translate(264.88 -218.92) rotate(45)"/><rect class="cls-45" x="395.45" y="206.44" width="7.4" height="2.77" transform="translate(263.88 -221.38) rotate(45)"/></g><path class="cls-46" d="M451.26,155.71a23.12,23.12,0,1,0,0,32.7A23.12,23.12,0,0,0,451.26,155.71Zm-3.62,29.08a18,18,0,1,1,0-25.46A18,18,0,0,1,447.64,184.8Z"/><path class="cls-46" d="M214.71,297.93s-3.94-1.71-3.94-3.83,3.94-3.83,3.94-3.83a.48.48,0,0,0,.26-.57l-2.2-5.31a.48.48,0,0,0-.59-.22s-4,1.57-5.49.07.07-5.49.07-5.49a.48.48,0,0,0-.22-.59l-5.31-2.2a.48.48,0,0,0-.57.26s-1.71,3.94-3.83,3.94-3.83-3.94-3.83-3.94a.48.48,0,0,0-.57-.26l-5.31,2.2a.48.48,0,0,0-.22.59s1.57,4,.07,5.49-5.49-.07-5.49-.07a.48.48,0,0,0-.59.22l-2.2,5.31a.48.48,0,0,0,.26.57s3.94,1.71,3.94,3.83-3.94,3.83-3.94,3.83a.48.48,0,0,0-.26.57l2.2,5.31a.48.48,0,0,0,.59.22s4-1.57,5.49-.07-.07,5.49-.07,5.49a.48.48,0,0,0,.22.59l5.31,2.2A.48.48,0,0,0,193,312s1.71-3.94,3.83-3.94,3.83,3.94,3.83,3.94a.48.48,0,0,0,.57.26l5.31-2.2a.48.48,0,0,0,.22-.59s-1.57-4-.07-5.49,5.49.07,5.49.07a.48.48,0,0,0,.59-.22l2.2-5.31A.48.48,0,0,0,214.71,297.93Zm-17.88,5.88a9.72,9.72,0,1,1,9.72-9.72A9.72,9.72,0,0,1,196.83,303.81Z"/><path class="cls-47" d="M196.83,302.08a8,8,0,1,1,8-8A8,8,0,0,1,196.83,302.08Zm0-14.84a6.85,6.85,0,1,0,6.85,6.85A6.86,6.86,0,0,0,196.83,287.24Z"/><path class="cls-46" d="M180.88,315.08s-2.9-1.26-2.9-2.83,2.9-2.83,2.9-2.83a.35.35,0,0,0,.19-.42l-1.62-3.91a.36.36,0,0,0-.43-.16s-2.94,1.16-4,.05.05-4,.05-4a.36.36,0,0,0-.16-.43L171,298.89a.35.35,0,0,0-.42.19s-1.26,2.9-2.83,2.9-2.83-2.9-2.83-2.9a.35.35,0,0,0-.42-.19l-3.91,1.62a.36.36,0,0,0-.16.43s1.16,2.94.05,4-4-.05-4-.05a.36.36,0,0,0-.43.16L154.34,309a.35.35,0,0,0,.19.42s2.9,1.26,2.9,2.83-2.9,2.83-2.9,2.83a.35.35,0,0,0-.19.42l1.62,3.91a.36.36,0,0,0,.43.16s2.94-1.16,4-.05-.05,4-.05,4a.36.36,0,0,0,.16.43l3.91,1.62a.35.35,0,0,0,.42-.19s1.26-2.9,2.83-2.9,2.83,2.9,2.83,2.9a.35.35,0,0,0,.42.19l3.91-1.62a.36.36,0,0,0,.16-.43s-1.16-2.94-.05-4,4,.05,4,.05a.36.36,0,0,0,.43-.16l1.62-3.91A.35.35,0,0,0,180.88,315.08Zm-13.17,4.34a7.16,7.16,0,1,1,7.16-7.16A7.16,7.16,0,0,1,167.7,319.41Z"/><path class="cls-47" d="M167.71,318.14a5.88,5.88,0,1,1,5.88-5.88A5.89,5.89,0,0,1,167.71,318.14Zm0-10.93a5.05,5.05,0,1,0,5,5.05A5.06,5.06,0,0,0,167.71,307.2Z"/><path class="cls-46" d="M202.45,326.39s-2.2-1-2.2-2.14,2.2-2.14,2.2-2.14a.27.27,0,0,0,.15-.32l-1.23-3a.27.27,0,0,0-.33-.12s-2.23.88-3.07,0,0-3.07,0-3.07a.27.27,0,0,0-.12-.33l-3-1.23a.27.27,0,0,0-.32.15s-1,2.2-2.14,2.2-2.14-2.2-2.14-2.2a.27.27,0,0,0-.32-.15l-3,1.23a.27.27,0,0,0-.12.33s.88,2.23,0,3.07-3.07,0-3.07,0a.27.27,0,0,0-.33.12l-1.23,3a.27.27,0,0,0,.15.32s2.2,1,2.2,2.14-2.2,2.14-2.2,2.14a.27.27,0,0,0-.15.32l1.23,3a.27.27,0,0,0,.33.12s2.23-.88,3.07,0,0,3.07,0,3.07a.27.27,0,0,0,.12.33l3,1.23a.27.27,0,0,0,.32-.15s1-2.2,2.14-2.2,2.14,2.2,2.14,2.2a.27.27,0,0,0,.32.15l3-1.23a.27.27,0,0,0,.12-.33s-.88-2.23,0-3.07,3.07,0,3.07,0a.27.27,0,0,0,.33-.12l1.23-3A.27.27,0,0,0,202.45,326.39Zm-10,3.29a5.43,5.43,0,1,1,5.43-5.43A5.43,5.43,0,0,1,192.46,329.68Z"/><path class="cls-47" d="M192.46,328.71a4.46,4.46,0,1,1,4.46-4.46A4.47,4.47,0,0,1,192.46,328.71Zm0-8.29a3.83,3.83,0,1,0,3.83,3.83A3.83,3.83,0,0,0,192.46,320.42Z"/><path class="cls-48" d="M440.38,176a6.73,6.73,0,0,1-12.2-3.87h2.2l-3.5-3.48-3.49,3.48h2.2a9.32,9.32,0,0,0,16.64,5.72l-.76-.76Z"/><path class="cls-48" d="M445,172.12h-.76s0,0,0-.05a9.32,9.32,0,0,0-16.68-5.7l.79.79,1.06,1.06a6.73,6.73,0,0,1,12.24,3.86s0,0,0,.05h-2.2l3.5,3.48,3.49-3.48Z"/></g></g></svg>